<?xml version="1.0" encoding="utf-8"?>
<!-- Generator: Adobe Illustrator 16.0.0, SVG Export Plug-In . SVG Version: 6.00 Build 0)  -->
<!DOCTYPE svg PUBLIC "-//W3C//DTD SVG 1.1//EN" "http://www.w3.org/Graphics/SVG/1.1/DTD/svg11.dtd">
<svg version="1.1" id="Layer_1" xmlns="http://www.w3.org/2000/svg" xmlns:xlink="http://www.w3.org/1999/xlink" x="0px" y="0px"
	 width="301px" height="112px" viewBox="0 0 301 112" enable-background="new 0 0 301 112" xml:space="preserve">
<path fill="#FFFFFF" d="M175.419,18.805c-0.727-2.249-2.211-4.588-3.988-6.075c1.121-0.211,1.908-0.973,1.908-1.948V7.77
	c0-0.542-0.252-1.024-0.666-1.375c0.414-0.361,0.666-0.843,0.666-1.386V1.997c0-1.144-1.091-2.008-2.536-2.007h-37.379
	c-1.444,0-2.534,0.864-2.534,2.008V5.01c0,0.542,0.252,1.024,0.666,1.386c-0.414,0.351-0.666,0.833-0.666,1.375V9.9h0.001v0.883
	c0,0.051,0,0.101,0.02,0.141c0.06,0.904,0.828,1.607,1.888,1.808c-1.747,1.455-3.059,3.413-3.705,5.652
	c-0.293,1.014-0.455,2.089-0.455,3.193v41.167c0,6.367,5.211,11.547,11.612,11.547h23.728c6.401,0,11.612-5.182,11.612-11.547
	C175.591,62.743,176.267,21.406,175.419,18.805z M133.405,2.308h37.39v2.008h-37.39V2.308z M133.405,7.891h37.39V9.9h-32.967h-4.423
	h0V7.891z M172.561,28.856v33.845c0,4.699-3.847,8.535-8.583,8.535H140.25c-4.735,0-8.582-3.835-8.582-8.535V41.396V21.575
	c0-0.009,0-0.03,0-0.04c0-0.19,0.01-0.372,0.021-0.562s0.03-0.391,0.061-0.582c0.049-0.392,0.131-0.773,0.242-1.145
	c0.999-3.604,4.321-6.245,8.259-6.245h23.728c3.958,0,7.301,2.681,8.28,6.316c0.04,0.131,0.07,0.261,0.101,0.392
	c0.021,0.12,0.051,0.23,0.071,0.351c0.051,0.282,0.092,0.573,0.111,0.864c0.01,0.211,0.021,0.432,0.021,0.653v0.864v1.515v0.813
	v0.823v1.536v1.546L172.561,28.856L172.561,28.856z"/>
<path fill="#FFFFFF" d="M0,83.955c0-0.358,0.18-0.572,0.576-0.572h8.632c3.381,0,5.18,1.824,5.18,5.186v18.277
	c0,3.362-1.798,5.15-5.18,5.15H0.576c-0.396,0-0.576-0.179-0.576-0.572V83.955z M8.201,107.274c0.935,0,1.439-0.465,1.439-1.43
	V89.57c0-0.965-0.504-1.466-1.439-1.466H4.892v19.17H8.201z"/>
<path fill="#FFFFFF" d="M30.79,111.996c-0.324,0-0.503-0.179-0.575-0.5l-1.007-5.222h-6.402l-0.971,5.222
	c-0.072,0.322-0.252,0.5-0.576,0.5H17.41c-0.396,0-0.575-0.214-0.467-0.608l5.971-27.504c0.072-0.358,0.287-0.501,0.611-0.501h5
	c0.324,0,0.54,0.143,0.611,0.501l5.97,27.504c0.072,0.394-0.072,0.608-0.503,0.608H30.79z M26.006,89.642l-2.302,12.482h4.604
	L26.006,89.642z"/>
<path fill="#FFFFFF" d="M50.358,83.383c0.539,0,0.755,0.286,0.647,0.787l-6.079,27.183c-0.107,0.429-0.359,0.643-0.791,0.643h-3.597
	c-0.432,0-0.683-0.214-0.792-0.643l-6.042-27.183c-0.108-0.501,0.107-0.787,0.647-0.787h3.417c0.431,0,0.683,0.214,0.791,0.644
	l3.776,19.171l3.813-19.171c0.107-0.43,0.359-0.644,0.791-0.644H50.358z"/>
<path fill="#FFFFFF" d="M68.631,87.532c0,0.358-0.144,0.608-0.575,0.608h-8.992v7.153h6.87c0.36,0,0.576,0.215,0.576,0.608v3.541
	c0,0.394-0.216,0.608-0.576,0.608h-6.87v7.225h8.992c0.432,0,0.575,0.179,0.575,0.572v3.577c0,0.357-0.144,0.572-0.575,0.572H54.82
	c-0.324,0-0.54-0.214-0.54-0.572V83.955c0-0.358,0.216-0.572,0.54-0.572h13.236c0.432,0,0.575,0.214,0.575,0.572V87.532z"/>
<path fill="#FFFFFF" d="M72.589,84.098c0-0.465,0.252-0.715,0.719-0.715h3.273c0.468,0,0.72,0.25,0.72,0.715v3.505
	c0,0.358-0.072,0.608-0.252,0.894l-1.942,2.933c-0.108,0.179-0.216,0.25-0.432,0.25h-1.618c-0.288,0-0.396-0.179-0.288-0.429
	l1.439-3.147h-0.899c-0.467,0-0.719-0.251-0.719-0.716V84.098z"/>
<path fill="#FFFFFF" d="M90.465,83.383c3.381,0,5.179,1.788,5.179,5.15v3.791c0,0.358-0.18,0.572-0.575,0.572h-3.741
	c-0.36,0-0.575-0.214-0.575-0.572v-2.79c0-0.93-0.468-1.43-1.439-1.43h-1.727c-0.899,0-1.438,0.5-1.438,1.43v4.936l8.561,2.79
	c0.611,0.25,0.935,0.644,0.935,1.323v8.262c0,3.362-1.798,5.15-5.179,5.15h-4.028c-3.345,0-5.179-1.788-5.179-5.15v-3.756
	c0-0.394,0.216-0.572,0.575-0.572h3.741c0.396,0,0.575,0.179,0.575,0.572v2.754c0,0.965,0.54,1.43,1.438,1.43h1.727
	c0.935,0,1.439-0.465,1.439-1.43v-4.757l-8.525-2.79c-0.647-0.215-0.971-0.644-0.971-1.324v-8.44c0-3.362,1.834-5.15,5.179-5.15
	H90.465z"/>
<path fill="#FFFFFF" d="M118.163,83.383c3.381,0,5.18,1.788,5.18,5.15v3.791c0,0.358-0.18,0.572-0.576,0.572h-3.74
	c-0.36,0-0.576-0.214-0.576-0.572v-2.79c0-0.93-0.468-1.43-1.439-1.43h-1.726c-0.899,0-1.438,0.5-1.438,1.43v4.936l8.56,2.79
	c0.611,0.25,0.935,0.644,0.935,1.323v8.262c0,3.362-1.798,5.15-5.18,5.15h-4.028c-3.345,0-5.179-1.788-5.179-5.15v-3.756
	c0-0.394,0.216-0.572,0.576-0.572h3.741c0.396,0,0.576,0.179,0.576,0.572v2.754c0,0.965,0.54,1.43,1.438,1.43h1.726
	c0.936,0,1.439-0.465,1.439-1.43v-4.757l-8.524-2.79c-0.647-0.215-0.971-0.644-0.971-1.324v-8.44c0-3.362,1.834-5.15,5.179-5.15
	H118.163z"/>
<path fill="#FFFFFF" d="M150.392,83.383c0.467,0,0.719,0.286,0.683,0.751l-3.093,27.182c-0.036,0.465-0.288,0.68-0.755,0.68h-3.525
	c-0.431,0-0.683-0.214-0.791-0.643l-3.741-16.167l-3.776,16.202c-0.108,0.394-0.36,0.608-0.792,0.608h-3.597
	c-0.468,0-0.719-0.214-0.755-0.68l-2.95-27.182c-0.036-0.465,0.216-0.751,0.684-0.751h3.417c0.431,0,0.719,0.25,0.755,0.68
	l1.402,16.738h0.18l3.561-16.774c0.108-0.43,0.36-0.644,0.792-0.644h2.158c0.432,0,0.683,0.214,0.791,0.644l3.525,16.774h0.18
	l1.475-16.738c0.036-0.43,0.324-0.68,0.756-0.68H150.392z"/>
<path fill="#FFFFFF" d="M169.384,87.532c0,0.358-0.144,0.608-0.576,0.608h-8.992v7.153h6.87c0.36,0,0.576,0.215,0.576,0.608v3.541
	c0,0.394-0.216,0.608-0.576,0.608h-6.87v7.225h8.992c0.432,0,0.576,0.179,0.576,0.572v3.577c0,0.357-0.144,0.572-0.576,0.572
	h-13.236c-0.323,0-0.54-0.214-0.54-0.572V83.955c0-0.358,0.216-0.572,0.54-0.572h13.236c0.432,0,0.576,0.214,0.576,0.572V87.532z"/>
<path fill="#FFFFFF" d="M187.693,87.532c0,0.358-0.144,0.608-0.576,0.608h-8.992v7.153h6.87c0.36,0,0.576,0.215,0.576,0.608v3.541
	c0,0.394-0.216,0.608-0.576,0.608h-6.87v7.225h8.992c0.432,0,0.576,0.179,0.576,0.572v3.577c0,0.357-0.144,0.572-0.576,0.572
	h-13.236c-0.324,0-0.54-0.214-0.54-0.572V83.955c0-0.358,0.215-0.572,0.54-0.572h13.236c0.432,0,0.576,0.214,0.576,0.572V87.532z"/>
<path fill="#FFFFFF" d="M204.743,83.383c0.396,0,0.575,0.214,0.575,0.572v3.577c0,0.358-0.18,0.572-0.575,0.572h-4.172v23.32
	c0,0.393-0.18,0.572-0.575,0.572h-3.741c-0.359,0-0.575-0.179-0.575-0.572v-23.32h-4.172c-0.36,0-0.576-0.214-0.576-0.572v-3.577
	c0-0.358,0.216-0.572,0.576-0.572H204.743z"/>
<path fill="#FFFFFF" d="M231.001,83.383c0.396,0,0.576,0.214,0.576,0.572v3.577c0,0.358-0.18,0.572-0.576,0.572h-4.172v23.32
	c0,0.393-0.18,0.572-0.576,0.572h-3.741c-0.36,0-0.576-0.179-0.576-0.572v-23.32h-4.171c-0.36,0-0.576-0.214-0.576-0.572v-3.577
	c0-0.358,0.216-0.572,0.576-0.572H231.001z"/>
<path fill="#FFFFFF" d="M234.096,88.533c0-3.362,1.799-5.15,5.179-5.15h4.028c3.381,0,5.18,1.788,5.18,5.15v18.312
	c0,3.362-1.798,5.15-5.18,5.15h-4.028c-3.38,0-5.179-1.788-5.179-5.15V88.533z M242.405,107.382c0.935,0,1.438-0.465,1.438-1.431
	V89.427c0-0.93-0.503-1.431-1.438-1.431h-2.086c-0.935,0-1.439,0.501-1.439,1.431v16.524c0,0.966,0.504,1.431,1.439,1.431H242.405z"
	/>
<path fill="#FFFFFF" d="M252.441,88.533c0-3.362,1.799-5.15,5.179-5.15h4.028c3.381,0,5.179,1.788,5.179,5.15v18.312
	c0,3.362-1.798,5.15-5.179,5.15h-4.028c-3.38,0-5.179-1.788-5.179-5.15V88.533z M260.75,107.382c0.936,0,1.438-0.465,1.438-1.431
	V89.427c0-0.93-0.503-1.431-1.438-1.431h-2.086c-0.936,0-1.439,0.501-1.439,1.431v16.524c0,0.966,0.503,1.431,1.439,1.431H260.75z"
	/>
<path fill="#FFFFFF" d="M282.799,83.383c0.396,0,0.576,0.214,0.576,0.572v3.577c0,0.358-0.18,0.572-0.576,0.572h-4.172v23.32
	c0,0.393-0.18,0.572-0.575,0.572h-3.741c-0.359,0-0.575-0.179-0.575-0.572v-23.32h-4.172c-0.36,0-0.575-0.214-0.575-0.572v-3.577
	c0-0.358,0.215-0.572,0.575-0.572H282.799z"/>
<path fill="#FFFFFF" d="M296.109,83.955c0-0.358,0.215-0.572,0.575-0.572h3.705c0.432,0,0.611,0.214,0.611,0.572v27.469
	c0,0.357-0.179,0.572-0.611,0.572h-3.705c-0.36,0-0.575-0.214-0.575-0.572v-11.375h-4.604v11.375c0,0.357-0.216,0.572-0.576,0.572
	h-3.704c-0.432,0-0.612-0.214-0.612-0.572V83.955c0-0.358,0.18-0.572,0.612-0.572h3.704c0.36,0,0.576,0.214,0.576,0.572v11.374
	h4.604V83.955z"/>
<path fill="#FFFFFF" d="M139.519,53.375c-0.13,0-0.261-0.049-0.361-0.148c-0.199-0.198-0.199-0.519,0-0.717l25.192-25.052
	c0.2-0.198,0.522-0.198,0.722,0s0.199,0.52,0,0.717l-25.192,25.052C139.78,53.326,139.649,53.375,139.519,53.375z"/>
<path fill="#FFFFFF" d="M164.711,53.375c-0.13,0-0.261-0.049-0.361-0.148l-25.192-25.052c-0.199-0.198-0.199-0.519,0-0.717
	c0.2-0.198,0.522-0.198,0.722,0l25.192,25.052c0.199,0.198,0.199,0.519,0,0.717C164.972,53.326,164.841,53.375,164.711,53.375z"/>
<path fill="#FFFFFF" d="M150.292,26.879c0-0.086,0.043-0.138,0.139-0.138h2.082c0.815,0,1.249,0.44,1.249,1.25v4.407
	c0,0.811-0.434,1.242-1.249,1.242h-2.082c-0.096,0-0.139-0.043-0.139-0.138V26.879z M152.271,32.503
	c0.225,0,0.347-0.112,0.347-0.345v-3.924c0-0.233-0.122-0.354-0.347-0.354h-0.798v4.623H152.271z"/>
<path fill="#FFFFFF" d="M163.538,37.188c0.096,0,0.139,0.052,0.139,0.138v0.862c0,0.086-0.043,0.138-0.139,0.138h-1.006v5.623
	c0,0.095-0.043,0.138-0.139,0.138h-0.902c-0.086,0-0.138-0.043-0.138-0.138v-5.623h-1.006c-0.086,0-0.139-0.052-0.139-0.138v-0.862
	c0-0.086,0.052-0.138,0.139-0.138H163.538z"/>
<path fill="#FFFFFF" d="M142.172,37.188c0.815,0,1.249,0.431,1.249,1.242v0.915c0,0.086-0.043,0.138-0.139,0.138h-0.902
	c-0.086,0-0.138-0.052-0.138-0.138v-0.673c0-0.225-0.113-0.345-0.347-0.345h-0.416c-0.217,0-0.347,0.121-0.347,0.345v1.19
	l2.064,0.673c0.147,0.06,0.226,0.155,0.226,0.319v1.992c0,0.811-0.434,1.242-1.249,1.242h-0.971c-0.807,0-1.249-0.431-1.249-1.242
	V41.94c0-0.095,0.052-0.139,0.139-0.139h0.902c0.095,0,0.139,0.043,0.139,0.139v0.664c0,0.233,0.13,0.345,0.347,0.345h0.416
	c0.226,0,0.347-0.112,0.347-0.345v-1.147l-2.056-0.673c-0.156-0.051-0.234-0.155-0.234-0.319v-2.036
	c0-0.811,0.442-1.242,1.249-1.242H142.172z"/>
<path fill="#FFFFFF" d="M154.708,48.397c-0.01-0.501-0.248-0.876-0.579-1.092c-0.329-0.218-0.734-0.298-1.121-0.299
	c-0.325,0.001-0.638,0.057-0.894,0.156c-0.256-0.099-0.569-0.155-0.894-0.156c-0.386,0.001-0.792,0.081-1.121,0.299
	c-0.331,0.216-0.569,0.591-0.579,1.092v0.002c0,0.031-0.001,0.062-0.001,0.095c-0.004,0.616,0.179,0.949,0.335,1.218
	c0.151,0.273,0.28,0.488,0.284,1.072c0,0.792,0.13,1.296,0.321,1.621c0.188,0.323,0.456,0.463,0.681,0.463h0.004
	c0.063,0,0.122-0.01,0.177-0.03c0.084-0.03,0.148-0.095,0.184-0.158c0.037-0.064,0.056-0.129,0.069-0.196
	c0.026-0.134,0.031-0.283,0.035-0.447c0.007-0.328,0.011-0.714,0.11-1.041c0.042-0.141,0.093-0.29,0.161-0.389
	c0.069-0.097,0.126-0.143,0.232-0.154c0.106,0.012,0.163,0.057,0.232,0.154c0.067,0.1,0.119,0.249,0.16,0.389
	c0.132,0.431,0.094,0.956,0.125,1.33c0.012,0.127,0.027,0.241,0.09,0.353c0.036,0.063,0.1,0.128,0.186,0.159
	c0.053,0.019,0.113,0.03,0.176,0.03c0.226,0.001,0.496-0.138,0.686-0.463c0.191-0.325,0.32-0.829,0.321-1.621
	c0.004-0.583,0.132-0.798,0.284-1.072c0.156-0.269,0.34-0.602,0.335-1.218C154.71,48.462,154.709,48.43,154.708,48.397z"/>
</svg>
